<svg xmlns="http://www.w3.org/2000/svg" viewBox="0 0 549.99 230.44"><defs><style>.cls-1{fill:#385cad;}.cls-2{fill:#f4436c;}</style></defs><title>Principal</title><g id="Capa_2" data-name="Capa 2"><g id="Capa_1-2" data-name="Capa 1"><path class="cls-1" d="M217.27,1V11.91Q223.29,0,236,0V13.38h-3.29q-7.59,0-11.51,3.86t-3.91,13.38V63.51H204.34V1Z"/><path class="cls-1" d="M275.05,64.53q-13.67,0-22.51-8.91t-8.85-23.36q0-14.44,9.13-23.36T275.56,0q13.6,0,22.74,8.9t9.13,23.31q0,14.4-9.36,23.36A32,32,0,0,1,275.05,64.53ZM288.49,48q5.67-5.67,5.67-15.76t-5.5-15.71a18,18,0,0,0-13.33-5.61,17.42,17.42,0,0,0-13.15,5.61q-5.34,5.61-5.33,15.76T262.06,48a17,17,0,0,0,13,5.61A18.37,18.37,0,0,0,288.49,48Z"/><path class="cls-1" d="M317.4,18.94q0-7.94,6.69-13.44T341.67,0Q352.56,0,359,5.39t6.87,14.68H352.56a10.36,10.36,0,0,0-3.23-7.25c-1.93-1.74-4.64-2.61-8.11-2.61s-6.2.77-8.17,2.32a7.44,7.44,0,0,0-2.95,6.13q0,3.8,3.75,5.95A28.87,28.87,0,0,0,343,27.78c3.58.68,7.18,1.52,10.77,2.5a19.5,19.5,0,0,1,9.13,5.39q3.74,3.91,3.74,10.49a15.8,15.8,0,0,1-6.86,13.26q-6.87,5.11-17.63,5.11t-17.47-5.22q-6.69-5.22-7.37-14.86h13.38a10,10,0,0,0,3.4,7.26q3.06,2.61,8.34,2.61A13.73,13.73,0,0,0,350.8,52a7.33,7.33,0,0,0,3.12-6.18,6.65,6.65,0,0,0-3.74-6,30.08,30.08,0,0,0-9.13-3.24q-5.39-1.07-10.78-2.49a19.88,19.88,0,0,1-9.13-5.16A13.51,13.51,0,0,1,317.4,18.94Z"/><path class="cls-1" d="M378,18.94Q378,11,384.65,5.5T402.23,0q10.89,0,17.29,5.39t6.86,14.68H413.11a10.28,10.28,0,0,0-3.23-7.25c-1.92-1.74-4.63-2.61-8.11-2.61s-6.19.77-8.16,2.32a7.41,7.41,0,0,0-2.95,6.13,6.62,6.62,0,0,0,3.74,5.95,29,29,0,0,0,9.13,3.17q5.39,1,10.78,2.5a19.5,19.5,0,0,1,9.13,5.39q3.74,3.91,3.74,10.49a15.8,15.8,0,0,1-6.86,13.26q-6.87,5.11-17.64,5.11t-17.46-5.22q-6.69-5.22-7.37-14.86h13.38a10,10,0,0,0,3.4,7.26q3.06,2.61,8.34,2.61A13.73,13.73,0,0,0,411.36,52a7.33,7.33,0,0,0,3.12-6.18,6.64,6.64,0,0,0-3.75-6,30,30,0,0,0-9.13-3.24q-5.39-1.07-10.77-2.49a19.88,19.88,0,0,1-9.13-5.16A13.51,13.51,0,0,1,378,18.94Z"/><path class="cls-1" d="M208.54,191.48q-8.5-9.12-8.51-23.36T208.48,145a27.79,27.79,0,0,1,21-8.9,24.86,24.86,0,0,1,13,3.34,23.6,23.6,0,0,1,8.68,8.79V115.67h13v83.92h-13V187.91a24.78,24.78,0,0,1-8.73,9.25,24,24,0,0,1-12.93,3.45A27.52,27.52,0,0,1,208.54,191.48Zm37-7.82q5.63-5.73,5.62-15.37T245.56,153a18.1,18.1,0,0,0-13.32-5.67,18.34,18.34,0,0,0-13.33,5.56q-5.61,5.56-5.61,15.2t5.61,15.48a18.24,18.24,0,0,0,26.65.11Z"/><path class="cls-1" d="M296,120.55a8.13,8.13,0,0,1-8.22,8.28,7.93,7.93,0,0,1-5.84-2.38,8.3,8.3,0,1,1,14.06-5.9Zm-14.74,79V137.11h12.93v62.48Z"/><path class="cls-1" d="M315.36,191.48q-8.5-9.12-8.5-23.36T315.31,145a27.78,27.78,0,0,1,21-8.9,24.9,24.9,0,0,1,13,3.34,23.57,23.57,0,0,1,8.67,8.79V137.11h13v63.5q0,13.15-8.1,21.49t-21.61,8.34q-13.5,0-21.88-5.95a22,22,0,0,1-9.53-16.16h12.81a13.94,13.94,0,0,0,6.3,7.88,22.47,22.47,0,0,0,12.08,3,16.5,16.5,0,0,0,12.07-4.76q4.83-4.77,4.82-13.84v-12.7a24.78,24.78,0,0,1-8.73,9.25,24,24,0,0,1-12.93,3.45A27.54,27.54,0,0,1,315.36,191.48Zm37-7.82q5.61-5.73,5.61-15.37T352.39,153a18.62,18.62,0,0,0-26.65-.11q-5.61,5.56-5.61,15.2t5.61,15.48a18.24,18.24,0,0,0,26.65.11Z"/><path class="cls-1" d="M402.8,120.55a8,8,0,0,1-2.39,5.9,8.36,8.36,0,0,1-11.68,0,8.28,8.28,0,0,1,5.85-14.18,7.94,7.94,0,0,1,5.83,2.38A8,8,0,0,1,402.8,120.55Zm-14.75,79V137.11H401v62.48Z"/><path class="cls-1" d="M448.27,147.65H433.08v34.59c0,2.35.54,4,1.64,5s3,1.53,5.61,1.53h7.94v10.77H438.06q-18,0-18-17.35V147.65h-7.37V137.11H420V121.57h13.05v15.54h15.19Z"/><path class="cls-1" d="M464.37,191.48q-8.5-9.12-8.5-23.36T464.32,145a27.78,27.78,0,0,1,21-8.9,24.87,24.87,0,0,1,13,3.34,23.57,23.57,0,0,1,8.67,8.79V137.11h13v62.48H507V187.91a24.63,24.63,0,0,1-8.73,9.25,24,24,0,0,1-12.93,3.45A27.54,27.54,0,0,1,464.37,191.48Zm37-7.82q5.61-5.73,5.61-15.37T501.4,153a18.1,18.1,0,0,0-13.32-5.67,18.31,18.31,0,0,0-13.33,5.56q-5.61,5.56-5.61,15.2t5.61,15.48a18.24,18.24,0,0,0,26.65.11Z"/><path class="cls-1" d="M537.07,199.59V115.67H550v83.92Z"/><path class="cls-2" d="M123.46,1H111.72Q73.29,1,57.33,34.18V1H27.63c-3,31,6.12,73.14,47.92,73.17S126.47,32,123.46,1Z"/><path class="cls-1" d="M152.39,81.53q-40.83,3.24-58.71,40.39V84.77H57.33V207H93.68V184.23q0-36,14.58-50.53t42.53-14.58h1.6Z"/><rect class="cls-1" y="84.77" width="36.4" height="36.4"/></g></g></svg>